<mxfile host="app.diagrams.net" agent="Mozilla/5.0 (Windows NT 10.0; Win64; x64) AppleWebKit/537.36 (KHTML, like Gecko) Chrome/129.0.0.0 Safari/537.36" version="24.7.17">
  <diagram name="Page-1" id="xEvTzy-JRt1gGz0M-Yfj">
    <mxGraphModel dx="2570" dy="696" grid="1" gridSize="10" guides="1" tooltips="1" connect="1" arrows="1" fold="1" page="1" pageScale="1" pageWidth="850" pageHeight="1100" math="0" shadow="0">
      <root>
        <mxCell id="0" />
        <mxCell id="1" parent="0" />
        <mxCell id="VbcVB8l_akQWRM8v_Z9f-1" value="" style="image;aspect=fixed;html=1;points=[];align=center;fontSize=12;image=img/lib/azure2/general/Resource_Groups.svg;" vertex="1" parent="1">
          <mxGeometry x="377.25" y="28.47" width="122.75" height="115.53" as="geometry" />
        </mxCell>
        <mxCell id="VbcVB8l_akQWRM8v_Z9f-2" value="RedTeamRG_2&lt;div&gt;Resource Group&lt;/div&gt;" style="text;html=1;align=center;verticalAlign=middle;resizable=0;points=[];autosize=1;strokeColor=none;fillColor=none;" vertex="1" parent="1">
          <mxGeometry x="390" y="144" width="110" height="40" as="geometry" />
        </mxCell>
        <mxCell id="VbcVB8l_akQWRM8v_Z9f-3" value="" style="image;sketch=0;aspect=fixed;html=1;points=[];align=center;fontSize=12;image=img/lib/mscae/Load_Balancer_feature.svg;" vertex="1" parent="1">
          <mxGeometry x="419" y="210" width="40" height="40" as="geometry" />
        </mxCell>
        <mxCell id="VbcVB8l_akQWRM8v_Z9f-4" value="RedTeamLB&lt;div&gt;48.210.224.113&lt;br&gt;&lt;div&gt;Load Balancer&lt;/div&gt;&lt;/div&gt;" style="text;html=1;align=center;verticalAlign=middle;resizable=0;points=[];autosize=1;strokeColor=none;fillColor=none;" vertex="1" parent="1">
          <mxGeometry x="383.63" y="245" width="110" height="60" as="geometry" />
        </mxCell>
        <mxCell id="VbcVB8l_akQWRM8v_Z9f-6" value="" style="image;aspect=fixed;html=1;points=[];align=center;fontSize=12;image=img/lib/azure2/networking/Virtual_Networks.svg;" vertex="1" parent="1">
          <mxGeometry x="-15" y="123.15" width="50" height="29.85" as="geometry" />
        </mxCell>
        <mxCell id="VbcVB8l_akQWRM8v_Z9f-7" value="RedTeamVN_2&lt;div&gt;10.0.0.0/16&lt;/div&gt;&lt;div&gt;Range: 10.0.0.0 - 10.0.255.255&amp;nbsp;&lt;br&gt;&lt;div&gt;Virtual Network&lt;div&gt;&lt;br&gt;&lt;/div&gt;&lt;/div&gt;&lt;/div&gt;" style="text;html=1;align=center;verticalAlign=middle;resizable=0;points=[];autosize=1;strokeColor=none;fillColor=none;rotation=0;" vertex="1" parent="1">
          <mxGeometry x="-75" y="160" width="190" height="90" as="geometry" />
        </mxCell>
        <mxCell id="VbcVB8l_akQWRM8v_Z9f-52" style="edgeStyle=orthogonalEdgeStyle;rounded=0;orthogonalLoop=1;jettySize=auto;html=1;exitX=1;exitY=0.5;exitDx=0;exitDy=0;exitPerimeter=0;" edge="1" parent="1" source="VbcVB8l_akQWRM8v_Z9f-10">
          <mxGeometry relative="1" as="geometry">
            <mxPoint x="150" y="564" as="targetPoint" />
          </mxGeometry>
        </mxCell>
        <mxCell id="VbcVB8l_akQWRM8v_Z9f-10" value="" style="verticalLabelPosition=bottom;html=1;verticalAlign=top;align=center;strokeColor=none;fillColor=#00BEF2;shape=mxgraph.azure.virtual_network;pointerEvents=1;" vertex="1" parent="1">
          <mxGeometry x="25" y="550" width="50" height="27.500000000000004" as="geometry" />
        </mxCell>
        <mxCell id="VbcVB8l_akQWRM8v_Z9f-76" style="edgeStyle=orthogonalEdgeStyle;rounded=0;orthogonalLoop=1;jettySize=auto;html=1;exitX=1;exitY=0.5;exitDx=0;exitDy=0;exitPerimeter=0;" edge="1" parent="1" source="VbcVB8l_akQWRM8v_Z9f-11">
          <mxGeometry relative="1" as="geometry">
            <mxPoint x="130" y="384" as="targetPoint" />
          </mxGeometry>
        </mxCell>
        <mxCell id="VbcVB8l_akQWRM8v_Z9f-11" value="" style="verticalLabelPosition=bottom;html=1;verticalAlign=top;align=center;strokeColor=none;fillColor=#00BEF2;shape=mxgraph.azure.virtual_network;pointerEvents=1;" vertex="1" parent="1">
          <mxGeometry x="25" y="369.85" width="50" height="27.500000000000004" as="geometry" />
        </mxCell>
        <mxCell id="VbcVB8l_akQWRM8v_Z9f-74" style="edgeStyle=orthogonalEdgeStyle;rounded=0;orthogonalLoop=1;jettySize=auto;html=1;exitX=1;exitY=0.5;exitDx=0;exitDy=0;exitPerimeter=0;" edge="1" parent="1" source="VbcVB8l_akQWRM8v_Z9f-12">
          <mxGeometry relative="1" as="geometry">
            <mxPoint x="130" y="431" as="targetPoint" />
          </mxGeometry>
        </mxCell>
        <mxCell id="VbcVB8l_akQWRM8v_Z9f-12" value="" style="verticalLabelPosition=bottom;html=1;verticalAlign=top;align=center;strokeColor=none;fillColor=#00BEF2;shape=mxgraph.azure.virtual_network;pointerEvents=1;" vertex="1" parent="1">
          <mxGeometry x="25" y="417.5" width="50" height="27.500000000000004" as="geometry" />
        </mxCell>
        <mxCell id="VbcVB8l_akQWRM8v_Z9f-73" style="edgeStyle=orthogonalEdgeStyle;rounded=0;orthogonalLoop=1;jettySize=auto;html=1;exitX=1;exitY=0.5;exitDx=0;exitDy=0;exitPerimeter=0;" edge="1" parent="1" source="VbcVB8l_akQWRM8v_Z9f-14">
          <mxGeometry relative="1" as="geometry">
            <mxPoint x="130" y="475" as="targetPoint" />
          </mxGeometry>
        </mxCell>
        <mxCell id="VbcVB8l_akQWRM8v_Z9f-14" value="" style="verticalLabelPosition=bottom;html=1;verticalAlign=top;align=center;strokeColor=none;fillColor=#00BEF2;shape=mxgraph.azure.virtual_network;pointerEvents=1;" vertex="1" parent="1">
          <mxGeometry x="25" y="461.25" width="50" height="27.500000000000004" as="geometry" />
        </mxCell>
        <mxCell id="VbcVB8l_akQWRM8v_Z9f-15" value="Jumpbox&lt;div&gt;4.241.165.62&lt;br&gt;&lt;div&gt;(ansible)&lt;/div&gt;&lt;/div&gt;" style="text;html=1;align=center;verticalAlign=middle;resizable=0;points=[];autosize=1;strokeColor=none;fillColor=none;" vertex="1" parent="1">
          <mxGeometry x="-60" y="535" width="90" height="60" as="geometry" />
        </mxCell>
        <mxCell id="VbcVB8l_akQWRM8v_Z9f-17" value="Web-1&lt;div&gt;10.0.0.5&lt;br&gt;&lt;div&gt;(docker)&lt;/div&gt;&lt;/div&gt;" style="text;html=1;align=center;verticalAlign=middle;resizable=0;points=[];autosize=1;strokeColor=none;fillColor=none;" vertex="1" parent="1">
          <mxGeometry x="-45" y="350.15" width="70" height="60" as="geometry" />
        </mxCell>
        <mxCell id="VbcVB8l_akQWRM8v_Z9f-18" value="Web-2&lt;div&gt;10.0.0.6&lt;br&gt;&lt;div&gt;(docker)&lt;/div&gt;&lt;/div&gt;" style="text;html=1;align=center;verticalAlign=middle;resizable=0;points=[];autosize=1;strokeColor=none;fillColor=none;" vertex="1" parent="1">
          <mxGeometry x="-45" y="396.4" width="70" height="60" as="geometry" />
        </mxCell>
        <mxCell id="VbcVB8l_akQWRM8v_Z9f-19" value="Web-3&lt;div&gt;10.0.0.7&lt;br&gt;&lt;div&gt;(docker)&lt;/div&gt;&lt;/div&gt;" style="text;html=1;align=center;verticalAlign=middle;resizable=0;points=[];autosize=1;strokeColor=none;fillColor=none;" vertex="1" parent="1">
          <mxGeometry x="-45" y="445" width="70" height="60" as="geometry" />
        </mxCell>
        <mxCell id="VbcVB8l_akQWRM8v_Z9f-21" value="" style="shape=partialRectangle;whiteSpace=wrap;html=1;bottom=0;right=0;fillColor=none;" vertex="1" parent="1">
          <mxGeometry x="-80" y="350" width="180" height="60.15" as="geometry" />
        </mxCell>
        <mxCell id="VbcVB8l_akQWRM8v_Z9f-22" value="" style="shape=partialRectangle;whiteSpace=wrap;html=1;top=0;left=0;fillColor=none;" vertex="1" parent="1">
          <mxGeometry x="-80" y="570" width="180" height="40" as="geometry" />
        </mxCell>
        <mxCell id="VbcVB8l_akQWRM8v_Z9f-23" value="" style="endArrow=block;dashed=1;endFill=0;endSize=12;html=1;rounded=0;exitX=0.034;exitY=0.49;exitDx=0;exitDy=0;exitPerimeter=0;" edge="1" parent="1">
          <mxGeometry width="160" relative="1" as="geometry">
            <mxPoint x="384.80000000000007" y="278.8" as="sourcePoint" />
            <mxPoint x="120" y="500" as="targetPoint" />
            <Array as="points">
              <mxPoint x="120" y="280" />
              <mxPoint x="120" y="390" />
            </Array>
          </mxGeometry>
        </mxCell>
        <mxCell id="VbcVB8l_akQWRM8v_Z9f-33" value="" style="image;aspect=fixed;html=1;points=[];align=center;fontSize=12;image=img/lib/azure2/networking/Network_Security_Groups.svg;" vertex="1" parent="1">
          <mxGeometry x="423.5" y="320.06" width="41" height="49.79" as="geometry" />
        </mxCell>
        <mxCell id="VbcVB8l_akQWRM8v_Z9f-34" value="RedTeamSG_2&lt;div&gt;Security Group&lt;/div&gt;" style="text;html=1;align=center;verticalAlign=middle;resizable=0;points=[];autosize=1;strokeColor=none;fillColor=none;" vertex="1" parent="1">
          <mxGeometry x="385" y="373" width="110" height="40" as="geometry" />
        </mxCell>
        <mxCell id="VbcVB8l_akQWRM8v_Z9f-35" value="" style="endArrow=block;dashed=1;endFill=0;endSize=12;html=1;rounded=0;exitX=0.034;exitY=0.49;exitDx=0;exitDy=0;exitPerimeter=0;" edge="1" parent="1">
          <mxGeometry width="160" relative="1" as="geometry">
            <mxPoint x="410" y="358.8" as="sourcePoint" />
            <mxPoint x="145" y="600" as="targetPoint" />
            <Array as="points">
              <mxPoint x="145.19999999999993" y="360" />
              <mxPoint x="145.19999999999993" y="470.00000000000006" />
            </Array>
          </mxGeometry>
        </mxCell>
        <mxCell id="VbcVB8l_akQWRM8v_Z9f-40" value="" style="outlineConnect=0;dashed=0;verticalLabelPosition=bottom;verticalAlign=top;align=center;html=1;shape=mxgraph.aws3.internet_3;fillColor=#D2D3D3;gradientColor=none;" vertex="1" parent="1">
          <mxGeometry x="404.25" y="433.5" width="79.5" height="54" as="geometry" />
        </mxCell>
        <mxCell id="VbcVB8l_akQWRM8v_Z9f-42" value="Internet" style="text;html=1;align=center;verticalAlign=middle;resizable=0;points=[];autosize=1;strokeColor=none;fillColor=none;" vertex="1" parent="1">
          <mxGeometry x="410" y="488" width="60" height="30" as="geometry" />
        </mxCell>
        <mxCell id="VbcVB8l_akQWRM8v_Z9f-90" style="edgeStyle=orthogonalEdgeStyle;rounded=0;orthogonalLoop=1;jettySize=auto;html=1;entryX=0.993;entryY=0.173;entryDx=0;entryDy=0;entryPerimeter=0;" edge="1" parent="1">
          <mxGeometry relative="1" as="geometry">
            <mxPoint x="504.9999999999999" y="466.1700000000001" as="targetPoint" />
            <mxPoint x="500" y="570" as="sourcePoint" />
            <Array as="points">
              <mxPoint x="486" y="570" />
              <mxPoint x="545" y="570" />
              <mxPoint x="545" y="466" />
            </Array>
          </mxGeometry>
        </mxCell>
        <mxCell id="VbcVB8l_akQWRM8v_Z9f-92" value="HTTP 80&lt;div&gt;SSH 22&lt;/div&gt;" style="edgeLabel;html=1;align=center;verticalAlign=middle;resizable=0;points=[];" vertex="1" connectable="0" parent="VbcVB8l_akQWRM8v_Z9f-90">
          <mxGeometry x="0.1406" y="1" relative="1" as="geometry">
            <mxPoint as="offset" />
          </mxGeometry>
        </mxCell>
        <mxCell id="VbcVB8l_akQWRM8v_Z9f-44" value="" style="image;html=1;image=img/lib/clip_art/computers/Laptop_128x128.png" vertex="1" parent="1">
          <mxGeometry x="410" y="535" width="70" height="67.5" as="geometry" />
        </mxCell>
        <mxCell id="VbcVB8l_akQWRM8v_Z9f-45" value="User Device" style="text;html=1;align=center;verticalAlign=middle;resizable=0;points=[];autosize=1;strokeColor=none;fillColor=none;" vertex="1" parent="1">
          <mxGeometry x="394" y="602.5" width="90" height="30" as="geometry" />
        </mxCell>
        <mxCell id="VbcVB8l_akQWRM8v_Z9f-51" value="" style="strokeWidth=2;html=1;shape=mxgraph.flowchart.annotation_2;align=left;labelPosition=right;pointerEvents=1;rotation=-90;" vertex="1" parent="1">
          <mxGeometry x="-30" y="488" width="30" height="70" as="geometry" />
        </mxCell>
        <mxCell id="VbcVB8l_akQWRM8v_Z9f-60" style="edgeStyle=orthogonalEdgeStyle;rounded=0;orthogonalLoop=1;jettySize=auto;html=1;exitX=0.5;exitY=1;exitDx=0;exitDy=0;exitPerimeter=0;" edge="1" parent="1" source="VbcVB8l_akQWRM8v_Z9f-54" target="VbcVB8l_akQWRM8v_Z9f-56">
          <mxGeometry relative="1" as="geometry" />
        </mxCell>
        <mxCell id="VbcVB8l_akQWRM8v_Z9f-54" value="" style="verticalLabelPosition=bottom;html=1;verticalAlign=top;align=center;strokeColor=none;fillColor=#00BEF2;shape=mxgraph.azure.virtual_machine;" vertex="1" parent="1">
          <mxGeometry x="-5" y="240" width="50" height="40" as="geometry" />
        </mxCell>
        <mxCell id="VbcVB8l_akQWRM8v_Z9f-56" value="RedTeamVM&lt;div&gt;Virtual Machine(s)&lt;/div&gt;" style="text;html=1;align=center;verticalAlign=middle;resizable=0;points=[];autosize=1;strokeColor=none;fillColor=none;" vertex="1" parent="1">
          <mxGeometry x="-40" y="300" width="120" height="40" as="geometry" />
        </mxCell>
        <mxCell id="VbcVB8l_akQWRM8v_Z9f-70" value="" style="line;strokeWidth=4;html=1;perimeter=backbonePerimeter;points=[];outlineConnect=0;" vertex="1" parent="1">
          <mxGeometry x="25" y="403" width="50" height="10" as="geometry" />
        </mxCell>
        <mxCell id="VbcVB8l_akQWRM8v_Z9f-71" value="" style="line;strokeWidth=4;html=1;perimeter=backbonePerimeter;points=[];outlineConnect=0;" vertex="1" parent="1">
          <mxGeometry x="25" y="446.4" width="50" height="10" as="geometry" />
        </mxCell>
        <mxCell id="VbcVB8l_akQWRM8v_Z9f-72" value="" style="line;strokeWidth=4;html=1;perimeter=backbonePerimeter;points=[];outlineConnect=0;" vertex="1" parent="1">
          <mxGeometry x="25" y="488.75" width="50" height="10" as="geometry" />
        </mxCell>
        <mxCell id="VbcVB8l_akQWRM8v_Z9f-87" value="" style="strokeWidth=2;html=1;shape=mxgraph.flowchart.annotation_2;align=left;labelPosition=right;pointerEvents=1;rotation=90;" vertex="1" parent="1">
          <mxGeometry x="-74.38" y="604.38" width="150" height="191.65" as="geometry" />
        </mxCell>
        <mxCell id="VbcVB8l_akQWRM8v_Z9f-88" value="SSH Public Keys&lt;div&gt;used to access VMs&lt;/div&gt;" style="text;html=1;align=center;verticalAlign=middle;resizable=0;points=[];autosize=1;strokeColor=none;fillColor=none;" vertex="1" parent="1">
          <mxGeometry x="-66.24" y="700" width="130" height="40" as="geometry" />
        </mxCell>
        <mxCell id="VbcVB8l_akQWRM8v_Z9f-89" value="Subnet for VMs&lt;div&gt;10.0.0.0/24&lt;/div&gt;" style="text;html=1;align=center;verticalAlign=middle;resizable=0;points=[];autosize=1;strokeColor=none;fillColor=none;" vertex="1" parent="1">
          <mxGeometry x="-60" y="740" width="110" height="40" as="geometry" />
        </mxCell>
        <mxCell id="VbcVB8l_akQWRM8v_Z9f-93" style="edgeStyle=orthogonalEdgeStyle;rounded=0;orthogonalLoop=1;jettySize=auto;html=1;entryX=0.993;entryY=0.173;entryDx=0;entryDy=0;entryPerimeter=0;" edge="1" parent="1">
          <mxGeometry relative="1" as="geometry">
            <mxPoint x="518.9999999999999" y="280.00000000000006" as="targetPoint" />
            <mxPoint x="514" y="383.83" as="sourcePoint" />
            <Array as="points">
              <mxPoint x="500" y="383.83" />
              <mxPoint x="559" y="383.83" />
              <mxPoint x="559" y="279.83" />
            </Array>
          </mxGeometry>
        </mxCell>
        <mxCell id="VbcVB8l_akQWRM8v_Z9f-94" value="HTTP 80&lt;div&gt;Security Group to Load Balancer&lt;/div&gt;" style="edgeLabel;html=1;align=center;verticalAlign=middle;resizable=0;points=[];" vertex="1" connectable="0" parent="VbcVB8l_akQWRM8v_Z9f-93">
          <mxGeometry x="0.1406" y="1" relative="1" as="geometry">
            <mxPoint as="offset" />
          </mxGeometry>
        </mxCell>
        <mxCell id="VbcVB8l_akQWRM8v_Z9f-97" style="edgeStyle=orthogonalEdgeStyle;rounded=0;orthogonalLoop=1;jettySize=auto;html=1;" edge="1" parent="1">
          <mxGeometry relative="1" as="geometry">
            <mxPoint x="160" y="565" as="targetPoint" />
            <mxPoint x="390" y="385" as="sourcePoint" />
            <Array as="points">
              <mxPoint x="260" y="385" />
              <mxPoint x="260" y="565" />
            </Array>
          </mxGeometry>
        </mxCell>
        <mxCell id="VbcVB8l_akQWRM8v_Z9f-98" value="&lt;div&gt;SSH 22&lt;/div&gt;&lt;div&gt;(SG to Jumpbox)&lt;/div&gt;" style="edgeLabel;html=1;align=center;verticalAlign=middle;resizable=0;points=[];" vertex="1" connectable="0" parent="VbcVB8l_akQWRM8v_Z9f-97">
          <mxGeometry x="0.1406" y="1" relative="1" as="geometry">
            <mxPoint x="-1" y="-43" as="offset" />
          </mxGeometry>
        </mxCell>
        <mxCell id="VbcVB8l_akQWRM8v_Z9f-101" value="" style="line;strokeWidth=2;direction=south;html=1;" vertex="1" parent="1">
          <mxGeometry x="435" y="410.15" width="10" height="14" as="geometry" />
        </mxCell>
        <mxCell id="VbcVB8l_akQWRM8v_Z9f-102" value="" style="line;strokeWidth=2;direction=south;html=1;" vertex="1" parent="1">
          <mxGeometry x="439" y="300" width="10" height="14" as="geometry" />
        </mxCell>
        <mxCell id="VbcVB8l_akQWRM8v_Z9f-103" value="" style="line;strokeWidth=2;direction=south;html=1;" vertex="1" parent="1">
          <mxGeometry x="435" y="184" width="10" height="14" as="geometry" />
        </mxCell>
        <mxCell id="VbcVB8l_akQWRM8v_Z9f-105" value="" style="line;strokeWidth=2;direction=south;html=1;" vertex="1" parent="1">
          <mxGeometry x="434" y="521" width="10" height="14" as="geometry" />
        </mxCell>
        <mxCell id="VbcVB8l_akQWRM8v_Z9f-106" style="edgeStyle=orthogonalEdgeStyle;rounded=0;orthogonalLoop=1;jettySize=auto;html=1;exitX=0;exitY=0.25;exitDx=0;exitDy=0;exitPerimeter=0;entryX=0;entryY=0.023;entryDx=0;entryDy=0;entryPerimeter=0;" edge="1" parent="1" source="VbcVB8l_akQWRM8v_Z9f-15">
          <mxGeometry relative="1" as="geometry">
            <mxPoint x="-60" y="485.0000000000001" as="targetPoint" />
            <mxPoint x="-95.80000000000018" y="550.22" as="sourcePoint" />
            <Array as="points">
              <mxPoint x="-153" y="550" />
              <mxPoint x="-153" y="485" />
            </Array>
          </mxGeometry>
        </mxCell>
        <mxCell id="VbcVB8l_akQWRM8v_Z9f-107" value="&lt;div&gt;SSH 22&lt;/div&gt;&lt;div&gt;Jumpbox to Docker(s)&lt;/div&gt;" style="edgeLabel;html=1;align=center;verticalAlign=middle;resizable=0;points=[];" vertex="1" connectable="0" parent="VbcVB8l_akQWRM8v_Z9f-106">
          <mxGeometry x="0.1406" y="1" relative="1" as="geometry">
            <mxPoint x="4" y="18" as="offset" />
          </mxGeometry>
        </mxCell>
        <mxCell id="VbcVB8l_akQWRM8v_Z9f-110" value="&lt;h1&gt;&lt;font style=&quot;font-size: 14px; font-weight: normal;&quot;&gt;&lt;font style=&quot;&quot; face=&quot;Times New Roman&quot;&gt;Japan East&lt;/font&gt;&lt;/font&gt;&lt;/h1&gt;" style="text;html=1;align=center;verticalAlign=middle;resizable=0;points=[];autosize=1;strokeColor=none;fillColor=none;" vertex="1" parent="1">
          <mxGeometry x="711" y="113.99999999999999" width="80" height="70" as="geometry" />
        </mxCell>
        <mxCell id="VbcVB8l_akQWRM8v_Z9f-112" value="" style="shape=image;html=1;verticalAlign=top;verticalLabelPosition=bottom;labelBackgroundColor=#ffffff;imageAspect=0;aspect=fixed;image=https://cdn3.iconfinder.com/data/icons/flags-37/300/japan-national-world-128.png" vertex="1" parent="1">
          <mxGeometry x="704.5" y="60" width="93" height="93" as="geometry" />
        </mxCell>
        <mxCell id="VbcVB8l_akQWRM8v_Z9f-114" value="Availability Zone" style="fillColor=none;strokeColor=#147EBA;dashed=1;verticalAlign=top;fontStyle=0;fontColor=#147EBA;whiteSpace=wrap;html=1;" vertex="1" parent="1">
          <mxGeometry x="686" y="41.5" width="130" height="130" as="geometry" />
        </mxCell>
        <mxCell id="VbcVB8l_akQWRM8v_Z9f-117" value="Docker(s) = Static&amp;nbsp;" style="text;html=1;align=center;verticalAlign=middle;resizable=0;points=[];autosize=1;strokeColor=none;fillColor=none;" vertex="1" parent="1">
          <mxGeometry x="-65" y="772.89" width="120" height="30" as="geometry" />
        </mxCell>
        <mxCell id="VbcVB8l_akQWRM8v_Z9f-118" value="Red Team Load Balancer&lt;div&gt;&lt;br&gt;&lt;/div&gt;&lt;div&gt;-Frontend Config&lt;/div&gt;&lt;div&gt;Public IP&lt;/div&gt;&lt;div&gt;&lt;br&gt;&lt;/div&gt;&lt;div&gt;-Backend Config:&lt;/div&gt;&lt;div&gt;&lt;span style=&quot;background-color: initial;&quot;&gt;Pool Containing&lt;/span&gt;&lt;br&gt;&lt;/div&gt;&lt;div&gt;Web 1&lt;/div&gt;&lt;div&gt;Web 2&lt;/div&gt;&lt;div&gt;Web 3&lt;/div&gt;" style="text;html=1;align=center;verticalAlign=middle;resizable=0;points=[];autosize=1;strokeColor=none;fillColor=none;" vertex="1" parent="1">
          <mxGeometry x="656" y="220" width="160" height="160" as="geometry" />
        </mxCell>
        <mxCell id="VbcVB8l_akQWRM8v_Z9f-119" value="Red Team Network Security Group Rules&lt;div&gt;&lt;br&gt;&lt;div&gt;&amp;nbsp;4094- AllowHTTPToLoadBalancer&lt;/div&gt;&lt;div&gt;4095-AllowSSHToJumpBox&lt;/div&gt;&lt;div&gt;4096- DenyFromAll&lt;/div&gt;&lt;div&gt;&lt;br&gt;&lt;/div&gt;&lt;/div&gt;" style="text;html=1;align=center;verticalAlign=middle;resizable=0;points=[];autosize=1;strokeColor=none;fillColor=none;" vertex="1" parent="1">
          <mxGeometry x="620" y="443.75" width="240" height="100" as="geometry" />
        </mxCell>
        <mxCell id="VbcVB8l_akQWRM8v_Z9f-120" value="" style="rounded=1;arcSize=10;dashed=1;strokeColor=#F59D56;fillColor=none;gradientColor=none;dashPattern=8 4;strokeWidth=2;" vertex="1" parent="1">
          <mxGeometry x="655.13" y="203.5" width="169.75" height="176.5" as="geometry" />
        </mxCell>
        <mxCell id="VbcVB8l_akQWRM8v_Z9f-121" value="" style="rounded=1;arcSize=10;dashed=1;strokeColor=#F59D56;fillColor=none;gradientColor=none;dashPattern=8 4;strokeWidth=2;" vertex="1" parent="1">
          <mxGeometry x="615.01" y="424.15" width="250" height="119.85" as="geometry" />
        </mxCell>
        <mxCell id="VbcVB8l_akQWRM8v_Z9f-122" value="&lt;font style=&quot;font-size: 18px;&quot;&gt;&lt;b style=&quot;&quot;&gt;Diana Kimondo&lt;/b&gt;&lt;/font&gt;&lt;div&gt;&lt;font size=&quot;3&quot;&gt;&lt;b&gt;Cloud Security&lt;/b&gt;&lt;/font&gt;&lt;/div&gt;" style="text;html=1;align=center;verticalAlign=middle;resizable=0;points=[];autosize=1;strokeColor=none;fillColor=none;" vertex="1" parent="1">
          <mxGeometry x="-200" y="41.5" width="160" height="50" as="geometry" />
        </mxCell>
      </root>
    </mxGraphModel>
  </diagram>
</mxfile>
